<?xml version="1.0" encoding="UTF-8"?>
<!DOCTYPE svg PUBLIC "-//W3C//DTD SVG 1.1//EN" "http://www.w3.org/Graphics/SVG/1.1/DTD/svg11.dtd">
<!-- Creator: CorelDRAW -->
<svg xmlns="http://www.w3.org/2000/svg" xml:space="preserve" width="512px" height="512px" version="1.1" style="shape-rendering:geometricPrecision; text-rendering:geometricPrecision; image-rendering:optimizeQuality; fill-rule:evenodd; clip-rule:evenodd"
viewBox="0 0 512 512"
 xmlns:xlink="http://www.w3.org/1999/xlink"
 xmlns:xodm="http://www.corel.com/coreldraw/odm/2003">
 <defs>
  <style type="text/css">
   <![CDATA[
    .fil3 {fill:none}
    .fil4 {fill:none;fill-rule:nonzero}
    .fil25 {fill:#606062}
    .fil11 {fill:#00C3FF}
    .fil17 {fill:#0474BA}
    .fil1 {fill:#87DCFF}
    .fil6 {fill:#90BF5E}
    .fil21 {fill:#E8AD80}
    .fil15 {fill:#606062;fill-rule:nonzero}
    .fil2 {fill:#00A7E1;fill-rule:nonzero}
    .fil16 {fill:#0474BA;fill-rule:nonzero}
    .fil9 {fill:#1AC9FF;fill-rule:nonzero}
    .fil22 {fill:#1D82C1;fill-rule:nonzero}
    .fil24 {fill:#33CC66;fill-rule:nonzero}
    .fil7 {fill:#844747;fill-rule:nonzero}
    .fil20 {fill:#85767D;fill-rule:nonzero}
    .fil8 {fill:#965353;fill-rule:nonzero}
    .fil26 {fill:#999999;fill-rule:nonzero}
    .fil5 {fill:#A0D468;fill-rule:nonzero}
    .fil12 {fill:#B9C1CB;fill-rule:nonzero}
    .fil23 {fill:#BABABA;fill-rule:nonzero}
    .fil18 {fill:#BC8C68;fill-rule:nonzero}
    .fil10 {fill:#BEE86E;fill-rule:nonzero}
    .fil13 {fill:#CDD6E2;fill-rule:nonzero}
    .fil0 {fill:#D2EFFA;fill-rule:nonzero}
    .fil19 {fill:#E6E6E6;fill-rule:nonzero}
    .fil14 {fill:#E8AD80;fill-rule:nonzero}
   ]]>
  </style>
   <clipPath id="id0" style="clip-rule:nonzero">
    <path d="M57.03 305.43c21.52,-25.22 12,-45.9 37.23,-89.78 5.63,-22.88 40.75,-30.96 61.99,-25.74 15.75,3.88 33.03,11.96 47.61,18.77 12.56,5.87 23.1,10.79 28.68,11.18 14.95,1.06 31.39,-5.18 48.23,-11.57 38.55,-14.63 79.23,-30.06 111.08,36.49l0.01 -0.01c0.06,0.13 0.09,0.27 0.1,0.41 4.63,43.54 33.65,50.75 61.19,57.58 24.41,6.06 47.69,11.85 52.8,41.47l0.01 0c0.01,0.06 0.01,0.12 0.01,0.18l0 0 0 111.31c0,0.58 -0.47,1.04 -1.04,1.04l-0.03 0 -497.83 0c-0.57,0 -1.04,-0.46 -1.04,-1.04l0 -0.03c0,-80.09 -7.86,-81.29 51,-150.26z"/>
   </clipPath>
     <clipPath id="id1">
      <path d="M505.97 453.66c-28.14,4.02 -48,-23.94 -52.44,-50.81 -3.92,-23.69 -2.82,-32.43 3.58,-55.32 5.5,1.08 31.32,12.2 48.86,21.86l0 84.27z"/>
     </clipPath>
     <clipPath id="id2">
      <path d="M57.03 305.43c21.52,-25.22 12,-45.9 37.23,-89.78 5.63,-22.88 40.75,-30.96 61.99,-25.74 15.75,3.88 33.03,11.96 47.61,18.77 12.56,5.87 23.1,10.79 28.68,11.18 14.95,1.06 31.39,-5.18 48.23,-11.57 38.55,-14.63 79.23,-30.06 111.08,36.49l0.01 -0.01c0.06,0.13 0.09,0.27 0.1,0.41 4.63,43.54 33.65,50.75 61.19,57.58 24.41,6.06 47.69,11.85 52.8,41.47l0.01 0c0.01,0.06 0.01,0.12 0.01,0.18l0 0 0 111.31c0,0.58 -0.47,1.04 -1.04,1.04l-0.03 0 -497.83 0c-0.57,0 -1.04,-0.46 -1.04,-1.04l0 -0.03c0,-80.09 -7.86,-81.29 51,-150.26z"/>
     </clipPath>
     <clipPath id="id3" style="clip-rule:nonzero">
      <path d="M256 392.27c35.18,0 67.03,-14.26 90.08,-37.32 23.05,-23.05 37.32,-54.9 37.32,-90.08l-254.8 0c0,35.18 14.26,67.03 37.32,90.08 23.05,23.06 54.9,37.32 90.08,37.32z"/>
     </clipPath>
 </defs>
 <g id="Layer_x0020_1">
  <metadata id="CorelCorpID_0Corel-Layer"/>
  <path class="fil0" d="M57.03 305.43c21.52,-25.22 12,-45.9 37.23,-89.78 5.63,-22.88 40.75,-30.96 61.99,-25.74 15.75,3.88 33.03,11.96 47.61,18.77 12.56,5.87 23.1,10.79 28.68,11.18 14.95,1.06 31.39,-5.18 48.23,-11.57 38.55,-14.63 79.23,-30.06 111.08,36.49l0.01 -0.01c0.06,0.13 0.09,0.27 0.1,0.41 4.63,43.54 33.65,50.75 61.19,57.58 24.41,6.06 47.69,11.85 52.8,41.47l0.01 0c0.01,0.06 0.01,0.12 0.01,0.18l0 0 0 111.31c0,0.58 -0.47,1.04 -1.04,1.04l-0.03 0 -497.83 0c-0.57,0 -1.04,-0.46 -1.04,-1.04l0 -0.03c0,-80.09 -7.86,-81.29 51,-150.26z"/>
  <g style="clip-path:url(#id0)">
   <g id="_2670732253792">
    <g>
     <path id="_1" class="fil1" d="M525.45 446.16c-38.24,23.76 -66.52,-10.59 -71.92,-43.31 -3.92,-23.69 -2.82,-32.43 3.58,-55.32 7.42,1.46 51.74,21.15 62.97,30.94 10.5,9.17 15.91,19.35 18.53,30.91 0.83,13.95 -2.07,27.85 -13.16,36.78z"/>
    </g>
    <g style="clip-path:url(#id1)">
     <g>
      <path id="_2" class="fil2" d="M456.64 347.41c-0.04,-0.74 0.51,-1.38 1.25,-1.42 0.74,-0.05 1.37,0.51 1.42,1.24 1.37,20.84 14.81,44.92 32.93,65 14.68,16.28 32.51,31.16 49.73,42.86l-2.21 1.72c-17.17,-11.74 -34.88,-26.59 -49.51,-42.79 -18.48,-20.49 -32.2,-45.11 -33.61,-66.61z"/>
     </g>
    </g>
    <g style="clip-path:url(#id2)">
     <path class="fil3" d="M525.45 446.16c-38.24,23.76 -66.52,-10.59 -71.92,-43.31 -3.92,-23.69 -2.82,-32.43 3.58,-55.32 7.42,1.46 51.74,21.15 62.97,30.94 10.5,9.17 15.91,19.35 18.53,30.91 0.83,13.95 -2.07,27.85 -13.16,36.78z"/>
     <path class="fil2" d="M512.32 433c0.71,-0.21 1.46,0.19 1.67,0.9 0.21,0.71 -0.2,1.45 -0.91,1.66 -0.03,0.02 -13.39,4.09 -27.56,0.57 -0.71,-0.18 -1.15,-0.9 -0.97,-1.62 0.18,-0.71 0.9,-1.14 1.62,-0.97 13.43,3.34 26.11,-0.53 26.15,-0.54z"/>
     <path class="fil2" d="M499.29 419.85c-0.14,0.72 -0.84,1.2 -1.56,1.06 -0.72,-0.14 -1.2,-0.84 -1.06,-1.56 0,-0.04 2.59,-13.04 -2.08,-26.09 -0.24,-0.69 0.12,-1.45 0.82,-1.7 0.69,-0.25 1.46,0.12 1.7,0.81 4.91,13.74 2.19,27.44 2.18,27.48z"/>
     <path class="fil2" d="M483.63 404.79c0.7,-0.21 1.45,0.19 1.66,0.9 0.21,0.71 -0.19,1.45 -0.9,1.66 -0.04,0.02 -8.7,5 -22.87,1.48 -0.72,-0.18 -1.15,-0.9 -0.97,-1.61 0.17,-0.72 0.9,-1.15 1.61,-0.98 13.44,3.34 21.43,-1.44 21.47,-1.45z"/>
     <path class="fil2" d="M477.36 394.23c-0.3,0.67 -1.09,0.97 -1.77,0.67 -0.67,-0.3 -0.97,-1.09 -0.67,-1.77 0.02,-0.03 5.56,-12.07 4.07,-25.85 -0.08,-0.73 0.45,-1.39 1.18,-1.46 0.74,-0.08 1.39,0.45 1.47,1.18 1.57,14.5 -4.27,27.19 -4.28,27.23z"/>
    </g>
   </g>
  </g>
  <path class="fil4" d="M57.03 305.43c21.52,-25.22 12,-45.9 37.23,-89.78 5.63,-22.88 40.75,-30.96 61.99,-25.74 15.75,3.88 33.03,11.96 47.61,18.77 12.56,5.87 23.1,10.79 28.68,11.18 14.95,1.06 31.39,-5.18 48.23,-11.57 38.55,-14.63 79.23,-30.06 111.08,36.49l0.01 -0.01c0.06,0.13 0.09,0.27 0.1,0.41 4.63,43.54 33.65,50.75 61.19,57.58 24.41,6.06 47.69,11.85 52.8,41.47l0.01 0c0.01,0.06 0.01,0.12 0.01,0.18l0 0 0 111.31c0,0.58 -0.47,1.04 -1.04,1.04l-0.03 0 -497.83 0c-0.57,0 -1.04,-0.46 -1.04,-1.04l0 -0.03c0,-80.09 -7.86,-81.29 51,-150.26z"/>
  <g id="_2670722391200">
   <g>
    <g>
     <g>
      <path class="fil5" d="M164.92 169.29c3.18,0 6.18,0.82 8.79,2.26 2.62,1.45 4.85,3.53 6.48,6.04l0.07 0 0.01 0 0.33 0 0.01 -0.01c5.02,0 9.57,2.04 12.87,5.33 3.29,3.3 5.33,7.85 5.33,12.87 0,2.71 -0.6,5.28 -1.66,7.59 -0.99,2.16 -2.38,4.08 -4.09,5.68 3.56,1.16 6.64,3.38 8.86,6.3 2.33,3.06 3.71,6.87 3.71,11.01 0,5.02 -2.04,9.57 -5.33,12.87 -3.29,3.29 -7.84,5.33 -12.87,5.33l-38.76 0c-5.03,0 -9.58,-2.04 -12.87,-5.33 -3.3,-3.3 -5.33,-7.85 -5.33,-12.87 0,-3.11 0.78,-6.04 2.15,-8.6 1.35,-2.5 3.26,-4.65 5.57,-6.28 -1.27,-1.54 -2.3,-3.3 -3.01,-5.2 -0.75,-1.99 -1.16,-4.15 -1.16,-6.4 0,-4.2 1.42,-8.08 3.82,-11.16 2.39,-3.08 5.75,-5.37 9.63,-6.41 1.11,-3.77 3.42,-7.03 6.47,-9.34 3.05,-2.31 6.85,-3.68 10.98,-3.68z"/>
      <path class="fil6" d="M180.61 177.58l0 0zm-6.9 -6.03c-2.61,-1.44 -5.61,-2.26 -8.79,-2.26 -4.13,0 -7.93,1.37 -10.98,3.68 -3.05,2.31 -5.36,5.57 -6.47,9.34 0,0 2.7,20.32 18.4,38.09 1.35,1.53 2.81,3.05 4.36,4.53 1.09,1.04 2.23,2.06 3.42,3.06 1.1,0.91 2.24,1.81 3.43,2.69 5.72,4.23 12.53,7.95 20.62,10.71 0.93,-0.64 1.8,-1.36 2.6,-2.16 3.29,-3.3 5.33,-7.85 5.33,-12.87 0,-4.14 -1.38,-7.95 -3.71,-11.01 -2.22,-2.92 -5.3,-5.14 -8.86,-6.3 1.71,-1.6 3.1,-3.52 4.09,-5.68 1.06,-2.31 1.66,-4.88 1.66,-7.59 0,-5.02 -2.04,-9.57 -5.33,-12.87 -3.3,-3.29 -7.85,-5.33 -12.88,-5.32l-0.33 0 -0.01 0 -0.07 0c-1.63,-2.51 -3.86,-4.59 -6.48,-6.04z"/>
     </g>
     <path class="fil7" d="M166.33 216.56c-0.74,0.94 -0.57,2.31 0.38,3.05 0.95,0.74 2.31,0.57 3.05,-0.37l11.06 -14.2c0.74,-0.95 0.57,-2.31 -0.38,-3.05 -0.94,-0.74 -2.31,-0.57 -3.05,0.37l-11.06 14.2z"/>
     <path class="fil7" d="M166.33 237.52c-0.74,0.95 -0.56,2.32 0.39,3.05 0.95,0.74 2.32,0.56 3.05,-0.39l11.12 -14.47c0.74,-0.95 0.56,-2.32 -0.39,-3.05 -0.95,-0.74 -2.32,-0.56 -3.05,0.39l-11.12 14.47z"/>
     <path class="fil7" d="M166.33 230.16c0.74,0.94 2.11,1.11 3.06,0.37 0.95,-0.74 1.11,-2.11 0.37,-3.05l-11.19 -14.33c-0.74,-0.95 -2.1,-1.12 -3.05,-0.38 -0.95,0.74 -1.12,2.11 -0.38,3.05l11.19 14.34z"/>
     <path class="fil8" d="M170.23 206.92c0,-1.2 -0.98,-2.18 -2.18,-2.18 -1.21,0 -2.18,0.98 -2.18,2.18l0 70.35c0,1.21 0.97,2.19 2.18,2.19 1.2,0 2.18,-0.98 2.18,-2.19l0 -70.35z"/>
    </g>
    <g>
     <g>
      <path class="fil5" d="M252.87 169.29c3.19,0 6.18,0.82 8.79,2.26 2.62,1.45 4.85,3.53 6.48,6.04l0.07 0 0.01 0 0.33 0 0.01 -0.01c5.02,0 9.57,2.04 12.87,5.33 3.29,3.3 5.33,7.85 5.33,12.87 0,2.71 -0.6,5.28 -1.66,7.59 -0.99,2.16 -2.38,4.08 -4.09,5.68 3.57,1.16 6.65,3.38 8.86,6.3 2.33,3.06 3.71,6.87 3.71,11.01 0,5.02 -2.03,9.57 -5.33,12.87 -3.29,3.29 -7.84,5.33 -12.87,5.33l-38.76 0c-5.03,0 -9.58,-2.04 -12.87,-5.33 -3.29,-3.3 -5.33,-7.85 -5.33,-12.87 0,-3.11 0.78,-6.04 2.15,-8.6 1.35,-2.5 3.26,-4.65 5.57,-6.28 -1.27,-1.54 -2.3,-3.3 -3.01,-5.2 -0.75,-1.99 -1.16,-4.15 -1.16,-6.4 0,-4.2 1.42,-8.08 3.82,-11.16 2.39,-3.08 5.75,-5.37 9.63,-6.41 1.11,-3.77 3.42,-7.03 6.47,-9.34 3.05,-2.31 6.86,-3.68 10.98,-3.68z"/>
      <path class="fil6" d="M268.56 177.58l0 0zm-6.9 -6.03c-2.61,-1.44 -5.6,-2.26 -8.79,-2.26 -4.12,0 -7.93,1.37 -10.98,3.68 -3.05,2.31 -5.36,5.57 -6.47,9.34 0,0 2.7,20.32 18.4,38.09 1.35,1.53 2.81,3.05 4.37,4.53 1.08,1.04 2.22,2.06 3.41,3.06 1.1,0.91 2.24,1.81 3.43,2.69 5.72,4.23 12.53,7.95 20.62,10.71 0.93,-0.64 1.81,-1.36 2.6,-2.16 3.3,-3.3 5.33,-7.85 5.33,-12.87 0,-4.14 -1.38,-7.95 -3.71,-11.01 -2.21,-2.92 -5.29,-5.14 -8.86,-6.3 1.71,-1.6 3.1,-3.52 4.09,-5.68 1.06,-2.31 1.66,-4.88 1.66,-7.59 0,-5.02 -2.04,-9.57 -5.33,-12.87 -3.3,-3.29 -7.85,-5.33 -12.88,-5.32l-0.33 0 -0.01 0 -0.07 0c-1.63,-2.51 -3.86,-4.59 -6.48,-6.04z"/>
     </g>
     <path class="fil7" d="M254.29 216.56c-0.74,0.94 -0.58,2.31 0.37,3.05 0.95,0.74 2.32,0.57 3.05,-0.37l11.06 -14.2c0.74,-0.95 0.57,-2.31 -0.38,-3.05 -0.94,-0.74 -2.31,-0.57 -3.05,0.37l-11.05 14.2z"/>
     <path class="fil7" d="M254.28 237.52c-0.74,0.95 -0.56,2.32 0.39,3.05 0.95,0.74 2.32,0.56 3.05,-0.39l11.13 -14.47c0.73,-0.95 0.56,-2.32 -0.4,-3.05 -0.95,-0.74 -2.31,-0.56 -3.05,0.39l-11.12 14.47z"/>
     <path class="fil7" d="M254.29 230.16c0.73,0.94 2.1,1.11 3.05,0.37 0.95,-0.74 1.11,-2.11 0.37,-3.05l-11.19 -14.33c-0.73,-0.95 -2.1,-1.12 -3.05,-0.38 -0.95,0.74 -1.11,2.11 -0.37,3.05l11.19 14.34z"/>
     <path class="fil8" d="M258.19 206.92c0,-1.2 -0.98,-2.18 -2.19,-2.18 -1.21,0 -2.18,0.98 -2.18,2.18l0 70.35c0,1.21 0.97,2.19 2.18,2.19 1.21,0 2.19,-0.98 2.19,-2.19l0 -70.35z"/>
    </g>
    <g>
     <g>
      <path class="fil5" d="M340.82 169.29c3.19,0 6.18,0.82 8.79,2.26 2.63,1.45 4.85,3.53 6.48,6.04l0.08 0 0 0 0.34 0 0 -0.01c5.03,0 9.58,2.04 12.87,5.33 3.29,3.3 5.33,7.85 5.33,12.87 0,2.71 -0.59,5.28 -1.66,7.59 -0.99,2.16 -2.38,4.08 -4.08,5.68 3.56,1.16 6.64,3.38 8.86,6.3 2.32,3.06 3.7,6.87 3.7,11.01 0,5.02 -2.03,9.57 -5.33,12.87 -3.29,3.29 -7.84,5.33 -12.87,5.33l-38.76 0c-5.03,0 -9.58,-2.04 -12.87,-5.33 -3.29,-3.3 -5.33,-7.85 -5.33,-12.87 0,-3.11 0.78,-6.04 2.15,-8.6 1.35,-2.5 3.26,-4.65 5.58,-6.28 -1.28,-1.54 -2.31,-3.3 -3.02,-5.2 -0.75,-1.99 -1.16,-4.15 -1.16,-6.4 0,-4.2 1.42,-8.08 3.82,-11.16 2.39,-3.08 5.76,-5.37 9.63,-6.41 1.12,-3.77 3.42,-7.03 6.47,-9.34 3.05,-2.31 6.86,-3.68 10.98,-3.68z"/>
      <path class="fil6" d="M356.51 177.58l0 0zm-6.9 -6.03c-2.61,-1.44 -5.6,-2.26 -8.79,-2.26 -4.12,0 -7.93,1.37 -10.98,3.68 -3.05,2.31 -5.35,5.57 -6.47,9.34 0,0 2.7,20.32 18.4,38.09 1.35,1.53 2.81,3.05 4.37,4.53 1.09,1.04 2.22,2.06 3.42,3.06 1.09,0.91 2.23,1.81 3.42,2.69 5.72,4.23 12.53,7.95 20.62,10.71 0.94,-0.64 1.81,-1.36 2.6,-2.16 3.3,-3.3 5.33,-7.85 5.33,-12.87 0,-4.14 -1.38,-7.95 -3.7,-11.01 -2.22,-2.92 -5.3,-5.14 -8.86,-6.3 1.7,-1.6 3.09,-3.52 4.08,-5.68 1.07,-2.31 1.66,-4.88 1.66,-7.59 0,-5.02 -2.04,-9.57 -5.33,-12.87 -3.29,-3.29 -7.84,-5.33 -12.87,-5.32l-0.34 0 0 0 -0.08 0c-1.63,-2.51 -3.85,-4.59 -6.48,-6.04z"/>
     </g>
     <path class="fil7" d="M342.24 216.56c-0.74,0.94 -0.57,2.31 0.37,3.05 0.95,0.74 2.32,0.57 3.06,-0.37l11.05 -14.2c0.74,-0.95 0.57,-2.31 -0.37,-3.05 -0.95,-0.74 -2.32,-0.57 -3.06,0.37l-11.05 14.2z"/>
     <path class="fil7" d="M342.23 237.52c-0.74,0.95 -0.56,2.32 0.39,3.05 0.95,0.74 2.32,0.56 3.05,-0.39l11.13 -14.47c0.73,-0.95 0.56,-2.32 -0.39,-3.05 -0.96,-0.74 -2.32,-0.56 -3.06,0.39l-11.12 14.47z"/>
     <path class="fil7" d="M342.24 230.16c0.74,0.94 2.1,1.11 3.05,0.37 0.95,-0.74 1.12,-2.11 0.38,-3.05l-11.19 -14.33c-0.74,-0.95 -2.11,-1.12 -3.06,-0.38 -0.95,0.74 -1.11,2.11 -0.37,3.05l11.19 14.34z"/>
     <path class="fil8" d="M346.14 206.92c0,-1.2 -0.98,-2.18 -2.19,-2.18 -1.2,0 -2.18,0.98 -2.18,2.18l0 70.35c0,1.21 0.98,2.19 2.18,2.19 1.21,0 2.19,-0.98 2.19,-2.19l0 -70.35z"/>
    </g>
   </g>
   <g>
    <path class="fil9" d="M256 392.27c35.18,0 67.03,-14.26 90.08,-37.32 23.05,-23.05 37.32,-54.9 37.32,-90.08l-254.8 0c0,35.18 14.26,67.03 37.32,90.08 23.05,23.06 54.9,37.32 90.08,37.32z"/>
    <g style="clip-path:url(#id3)">
     <g>
      <path id="_1_0" class="fil10" d="M187.14 233.31c1.49,0.74 12.79,5.99 14.32,-4.24 1.18,-7.82 -0.93,-10.32 -5.01,-10.93 -2.07,-0.31 -4.63,-0.11 -7.54,0.11 -6.53,0.5 -14.78,1.14 -22.56,-3.7l-0.22 -0.13 -0.16 0.19c-0.02,0.03 -3.9,4.86 -8.44,6.76 -1.36,0.57 -2.93,0.77 -4.33,0.52 -1.01,-0.17 -1.93,-0.57 -2.63,-1.22 -0.68,-0.64 -1.15,-1.53 -1.25,-2.69 -0.12,-1.33 0.22,-3 1.22,-5.06l0 0c3.81,-7.87 -2.51,-11.8 -2.92,-13.34 1.57,-0.78 10.81,-5.88 9.38,-16.2 0.8,-0.76 5.85,-5.59 5.27,-6.12 -0.1,-0.1 -0.34,-0.15 -0.72,-0.23 -0.8,-0.17 -2.29,-0.49 -3.72,-1.26 -2.9,-1.55 -5.53,-4.98 -1.28,-12.92l0.02 -0.08c0.01,-0.03 1.85,-8.01 -29.92,-16.15l-0.06 -0.01c-0.06,0 -19.07,-0.48 -24.55,-13.27 -6.54,-15.27 -1.12,16.16 -1.11,16.25l0.09 0.17c0.05,0.04 17.06,15.25 17.45,28.49 0.39,13.51 12.59,21.83 12.63,21.85l0.01 0.01c0.03,0.02 9.67,5.66 3.14,17.12 -3.36,5.89 -4.95,9.74 -5.17,13.74 -0.23,4.01 0.9,8.12 2.96,14.56 4.1,12.81 5.31,16.24 5.31,16.25l0.06 0.16 0.16 0.03c0.03,0 8.51,1.64 13.35,4.85 0.92,0.61 1.85,1.31 2.73,2.08 1.69,1.49 3.15,3.26 3.81,5.22 0.66,1.92 0.52,4.04 -0.95,6.26 -0.27,0.41 -0.6,0.83 -0.97,1.25 -2.55,2.89 -4.24,5.72 -4.74,7.71 -0.2,0.78 -0.21,1.44 -0.04,1.96 0.2,0.55 0.6,0.93 1.24,1.07l0 0c0.75,0.17 1.82,0 3.27,-0.58 6.46,-2.62 25.81,-22.36 25.87,-22.42l0.01 -0.01 5.51 -5.93c1.38,0.37 10.3,2.45 9.83,-6.4 -0.48,-8.91 13.64,-11.87 13.68,-11.87l0.14 -0.08c0.02,-0.01 6.62,-6.13 2.91,-14.58l-0.06 -0.09c-0.01,-0.01 -4.59,-5.01 -9,8.92 -0.62,0.62 -7.48,7.34 -17.56,5.51 -0.69,-0.52 -7.42,-5.86 0.54,-11.53z"/>
     </g>
    </g>
    <path class="fil4" d="M256 392.27c35.18,0 67.03,-14.26 90.08,-37.32 23.05,-23.05 37.32,-54.9 37.32,-90.08l-254.8 0c0,35.18 14.26,67.03 37.32,90.08 23.05,23.06 54.9,37.32 90.08,37.32z"/>
    <g>
     <path class="fil11" d="M336.37 280.15c0,-5.17 -0.31,-10.27 -0.9,-15.28l47.93 0c0,35.18 -14.27,67.03 -37.32,90.09 -19.69,19.69 -45.81,32.97 -74.93,36.42 10.27,-5.75 19.65,-12.89 27.91,-21.14 23.05,-23.06 37.31,-54.91 37.31,-90.09z"/>
     <g>
      <path class="fil10" d="M231.7 338.33c0.42,1.42 3.85,11.98 11.46,6.78 5.82,-3.98 6.17,-6.87 4.1,-9.91 -1.06,-1.54 -2.74,-3.09 -4.65,-4.85 -4.29,-3.96 -9.71,-8.97 -11.28,-16.98l-0.04 -0.22 -0.22 0.01c-0.04,0 -11.31,0.52 -15.3,-1.28 -1.19,-0.55 -2.28,-1.46 -2.97,-2.52 -0.5,-0.77 -0.79,-1.61 -0.79,-2.46 0,-0.83 0.3,-1.68 0.99,-2.45 0.8,-0.88 2.09,-1.68 4.05,-2.27l0 0c7.45,-2.29 11.94,-8.92 12.7,-10.12 1.46,0.55 10.4,3.48 16.26,-3.71 0.99,0.06 7.2,0.43 7.2,-0.27 0,-0.12 -0.11,-0.31 -0.29,-0.61 -0.37,-0.63 -1.07,-1.8 -1.44,-3.19 -0.74,-2.84 -0.09,-6.64 7.66,-8.68l0.08 -0.03c0.01,-0.01 2.9,-1.68 0.46,-10.7l-37.32 0c-4.33,7.84 -2.98,16.69 -2.98,16.72l0 0.01c0.01,0.03 2.17,9.75 -9.27,12.43 -5.89,1.38 -9.36,2.69 -12.12,4.97 -2.74,2.28 -4.75,5.51 -7.7,10.77 -5.88,10.44 -7.38,13.32 -7.39,13.33l-0.07 0.13 0.08 0.12c0.01,0.02 4.09,6.55 4.93,11.66 0.16,0.97 0.27,2 0.3,3.04 0.05,2.01 -0.22,4.04 -1.09,5.66 -0.86,1.59 -2.32,2.79 -4.67,3.18 -0.44,0.07 -0.9,0.11 -1.41,0.13 -3.43,0.09 -6.3,0.69 -7.91,1.58 -0.62,0.34 -1.07,0.73 -1.29,1.16 -0.25,0.46 -0.25,0.96 0.05,1.46l0 0c0.34,0.59 1.1,1.19 2.36,1.78 5.63,2.63 30.26,3.29 30.33,3.29l0.01 0 7.22 0c0.59,1.13 4.65,8.21 10.14,2.53 5.53,-5.71 16.03,1.71 16.06,1.73l0.13 0.05c0.02,0 8.02,0.6 11.29,-6.95l0.02 -0.09c0,-0.01 0.49,-6.03 -11.28,-0.47 -0.79,-0.02 -9.34,-0.43 -14.26,-8.12 -0.08,-0.77 -0.67,-8.4 7.86,-6.64z"/>
      <path class="fil10" d="M275.46 331.69c0.93,0.92 5.1,4.34 13.66,1.66 1.12,0.96 12.34,10.33 19.61,8.84 7.21,-1.49 11.99,-3.78 12.43,-3.99 0.91,-0.13 21.9,-3.1 32.53,-3.1 11.09,0 11.09,-4.42 11.09,-4.43l0 -0.19 -0.18 -0.03c-0.02,-0.01 -7.25,-1.32 -10.75,-4.82 -0.21,-0.21 -0.39,-0.43 -0.56,-0.66 -1.28,-1.79 -1.52,-4.39 -1.27,-6.71 0.25,-2.33 0.99,-4.36 1.67,-5.04l0 0c0.05,-0.05 0.09,-0.09 0.13,-0.11 1.75,-1.25 -9.93,-3.73 -12.62,-4.29 2.31,-1.49 11.87,-8.25 0.17,-10.92 -12.22,-2.79 -3.92,-10.25 -3.89,-10.27l0.18 -0.17 -0.19 -0.16c-0.01,-0.01 -5.13,-4.28 -1.32,-7.87 3.83,-3.62 9.65,2.19 9.67,2.21l0.35 -0.26c-0.02,-0.04 -7.66,-15.06 -17.37,-12.35 -4.87,1.36 -4.45,6.51 -4.04,11.72 0.42,5.21 0.84,10.48 -4.16,11.78 -3.51,0.92 -4.59,0.64 -4.83,-0.28 -0.12,-0.48 -0.05,-1.16 0.02,-1.94 0.22,-2.15 0.52,-5.06 -2.76,-7.5 -2.03,-1.5 -3.64,-0.65 -5.08,1.28 -1.16,1.56 -2.19,3.85 -3.22,6.14 -0.76,1.68 -1.53,3.37 -2.33,4.76 -1.46,2.52 -3.08,4.08 -5.14,2.89 -3.71,-2.16 -4.07,-3.33 -3.36,-4.55 0.25,-0.43 0.62,-0.87 1.03,-1.36 0.58,-0.69 1.24,-1.47 1.75,-2.45 0.3,-0.56 0.36,-1.15 0.22,-1.75 -0.18,-0.83 -0.75,-1.66 -1.57,-2.44 -0.79,-0.77 -1.84,-1.48 -2.99,-2.09 -2.76,-1.47 -6.2,-2.33 -8.54,-1.8 -5,1.14 -8.33,20.53 -8.37,20.8 -0.12,0.39 -2.11,7.77 3.89,10.66 1.17,0.57 1.76,1.11 1.88,1.58 0.07,0.28 -0.04,0.53 -0.32,0.75 -0.32,0.24 -0.83,0.43 -1.48,0.54l0 0c-2.27,0.35 -6.15,-0.32 -9.83,-3.02 -3.99,-2.93 -6.17,-1.66 -8.27,-0.43 -1.88,1.1 -3.69,2.16 -6.81,-0.24 -0.56,-0.43 -1.2,-0.93 -1.83,-1.41 -3.7,-2.88 -7.1,-5.53 -9.3,-5.67 -1.44,-0.1 -2.37,0.8 -2.53,3.25 -0.45,6.8 11.17,13.05 11.2,13.07l0.05 0.02c0.03,0.01 8.85,2.38 7.17,6.36 -0.56,1.33 -1.49,2.33 -2.27,3.16 -0.58,0.62 -1.07,1.15 -1.3,1.68 -0.48,1.09 0.12,2.07 3.25,3.42 0.97,0.43 1.87,0.87 2.71,1.3l0 0c4.93,2.46 7.95,3.97 13.82,-5.57z"/>
     </g>
    </g>
   </g>
  </g>
  <g id="_2670722385008">
   <g>
    <g>
     <path class="fil12" d="M335.63 112.11c0.25,-0.61 -0.04,-1.31 -0.65,-1.56 -0.61,-0.25 -1.32,0.04 -1.57,0.65l-15.88 38.45c-0.25,0.62 0.04,1.32 0.65,1.57 0.62,0.25 1.32,-0.04 1.57,-0.65l15.88 -38.46z"/>
     <path class="fil12" d="M370.69 113.79c0.25,-0.61 -0.04,-1.32 -0.66,-1.57 -0.61,-0.25 -1.31,0.04 -1.56,0.66l-15.89 38.45c-0.25,0.61 0.05,1.31 0.66,1.57 0.61,0.25 1.31,-0.05 1.56,-0.66l15.89 -38.45z"/>
     <path class="fil12" d="M363.37 84.53c0.25,-0.61 -0.04,-1.32 -0.65,-1.57 -0.61,-0.25 -1.32,0.05 -1.57,0.66l-15.88 38.45c-0.25,0.62 0.04,1.32 0.65,1.57 0.62,0.25 1.32,-0.04 1.57,-0.66l15.88 -38.45z"/>
     <path class="fil12" d="M332.65 84.53c0.25,-0.61 -0.04,-1.32 -0.65,-1.57 -0.62,-0.25 -1.32,0.05 -1.57,0.66l-15.88 38.45c-0.25,0.62 0.04,1.32 0.65,1.57 0.61,0.25 1.32,-0.04 1.57,-0.66l15.88 -38.45z"/>
     <path class="fil12" d="M394.09 84.53c0.26,-0.61 -0.04,-1.32 -0.65,-1.57 -0.61,-0.25 -1.31,0.05 -1.56,0.66l-15.89 38.45c-0.25,0.62 0.04,1.32 0.66,1.57 0.61,0.25 1.31,-0.04 1.56,-0.66l15.88 -38.45z"/>
    </g>
    <path class="fil12" d="M396 14.51c-0.72,-0.31 -1.47,-0.59 -2.22,-0.84l0 0c-16.52,-4.91 -31.97,5.07 -34.85,20.64 -27.35,11.08 -19.14,51.82 10.09,51.82l65.41 0c26.83,0 37.02,-35.27 14.37,-49.61 -2.36,-1.5 -4.98,-2.64 -7.76,-3.35 -0.97,-22.87 -28.32,-34 -45.04,-18.66z"/>
    <path class="fil13" d="M345.85 26.22c-0.73,-0.31 -1.47,-0.6 -2.23,-0.85l0 0c-16.52,-4.91 -31.97,5.07 -34.84,20.64 -27.36,11.08 -19.14,51.82 10.08,51.82l65.41 0c26.83,0 37.02,-35.27 14.37,-49.61 -2.36,-1.5 -4.97,-2.64 -7.76,-3.34 -0.97,-22.87 -28.32,-34.01 -45.03,-18.66z"/>
   </g>
   <g>
    <g>
     <path class="fil12" d="M176.37 112.11c-0.25,-0.61 0.04,-1.31 0.65,-1.56 0.61,-0.25 1.32,0.04 1.57,0.65l15.88 38.45c0.25,0.62 -0.04,1.32 -0.65,1.57 -0.62,0.25 -1.32,-0.04 -1.57,-0.65l-15.88 -38.46z"/>
     <path class="fil12" d="M141.31 113.79c-0.25,-0.61 0.04,-1.32 0.66,-1.57 0.61,-0.25 1.31,0.04 1.56,0.66l15.89 38.45c0.25,0.61 -0.05,1.31 -0.66,1.57 -0.61,0.25 -1.31,-0.05 -1.56,-0.66l-15.89 -38.45z"/>
     <path class="fil12" d="M148.63 84.53c-0.25,-0.61 0.04,-1.32 0.65,-1.57 0.61,-0.25 1.32,0.05 1.57,0.66l15.88 38.45c0.25,0.62 -0.04,1.32 -0.65,1.57 -0.62,0.25 -1.32,-0.04 -1.57,-0.66l-15.88 -38.45z"/>
     <path class="fil12" d="M179.35 84.53c-0.25,-0.61 0.04,-1.32 0.65,-1.57 0.62,-0.25 1.32,0.05 1.57,0.66l15.88 38.45c0.25,0.62 -0.04,1.32 -0.65,1.57 -0.61,0.25 -1.32,-0.04 -1.57,-0.66l-15.88 -38.45z"/>
     <path class="fil12" d="M117.91 84.53c-0.26,-0.61 0.04,-1.32 0.65,-1.57 0.61,-0.25 1.31,0.05 1.56,0.66l15.89 38.45c0.25,0.62 -0.04,1.32 -0.66,1.57 -0.61,0.25 -1.31,-0.04 -1.56,-0.66l-15.88 -38.45z"/>
    </g>
    <path class="fil12" d="M116 14.51c0.72,-0.31 1.47,-0.59 2.22,-0.84l0 0c16.52,-4.91 31.97,5.07 34.85,20.64 27.35,11.08 19.14,51.82 -10.09,51.82l-65.41 0c-26.83,0 -37.02,-35.27 -14.37,-49.61 2.36,-1.5 4.98,-2.64 7.76,-3.35 0.97,-22.87 28.32,-34 45.04,-18.66z"/>
    <path class="fil13" d="M166.15 26.22c0.73,-0.31 1.47,-0.6 2.23,-0.85l0 0c16.52,-4.91 31.97,5.07 34.84,20.64 27.36,11.08 19.14,51.82 -10.08,51.82l-65.41 0c-26.83,0 -37.02,-35.27 -14.37,-49.61 2.36,-1.5 4.97,-2.64 7.76,-3.34 0.97,-22.87 28.32,-34.01 45.03,-18.66z"/>
   </g>
  </g>
  <g id="_2670722382992">
   <path class="fil14" d="M31.63 329.63c4.38,-27.75 9.69,-38.06 9.91,-38.38 -0.04,0.05 -0.1,0.07 -0.16,0.05l0.04 -0.15 0.13 0.09 -0.01 0.01c0.01,-0.02 0.02,-0.03 0.03,-0.05 0.02,-0.08 -0.02,-0.17 -0.1,-0.19l-9.42 -2.89 0 0c-0.08,-0.03 -0.16,0.01 -0.19,0.09l0 0c-1.47,4 -5.87,23.33 -7.31,39.09 -0.94,10.28 -1,18.95 0.95,20.62l0 0.01 0 0c3.73,3.69 5.95,0.9 6.09,0.72 0.02,-0.02 0.04,-0.05 0.04,-0.08l-0.15 -0.02 0.15 0.02 1.36 -10.86c0.31,0.15 0.77,0.44 1.27,0.79 0.94,0.66 2.02,1.5 2.63,1.99l0.02 0.01 0.09 -0.12 -0.09 0.12c0.4,0.31 0.78,0.33 1.09,0.16 0.17,-0.1 0.31,-0.26 0.42,-0.45l0.01 -0.01 0 0 0 0 0 0c0.1,-0.19 0.17,-0.41 0.2,-0.65 0.07,-0.62 -0.16,-1.34 -0.86,-1.74l-0.01 -0.01 0 0c-4.22,-2.42 -5.98,-7.7 -6.13,-8.17z"/>
   <path class="fil14" d="M92.85 288.11c-2.41,3.45 -7.45,9.21 -6,10.33l0 0 15.84 12.2 0.01 0c5.55,4.1 8.86,-0.41 9.76,-1.52l19.5 -21.57c4.42,-3.35 7.96,-5.55 8.93,-12.24l0 0c0.16,-1.85 -0.8,-3.65 -2.45,-3.69l0 0.01c-1.28,-0.24 -3.54,1.6 -5.16,3.12 -0.11,-0.21 -0.31,-0.39 -0.56,-0.48l0 0 -2.09 -0.26c-3.81,2.86 -3.96,6.68 -3.85,8.16l-19.91 17 -12.56 -11.32c-0.48,-0.33 -1.13,-0.21 -1.46,0.26z"/>
   <path class="fil15" d="M48.52 241.42c-0.12,1.03 -0.56,2.61 -0.97,3.98 0.05,-0.01 0.11,-0.02 0.16,-0.03 0.44,-0.02 0.81,0.32 0.84,0.75l-0.01 0.01c0,0.01 0.23,5.43 1.3,6.13 1.07,0.69 2.31,2.84 3.07,4.29l0.58 -1.1c0.07,-0.17 0.22,-0.32 0.41,-0.4 0.4,-0.17 0.87,0.02 1.04,0.42l0 0c0.27,0.63 1.85,2.15 2.14,2.42 0.23,0.16 1.34,0.96 2.5,1.99 0.65,0.59 1.37,1.29 2.01,2.03 0.64,0.75 1.2,1.54 1.54,2.33l0.03 0.07 0 0c0.13,0.33 -0.07,0.56 -0.09,0.59l0.04 -0.04 0 0 1.96 -1.68c0.03,-0.03 0.07,-0.07 0.11,-0.1 0.36,-0.24 0.86,-0.15 1.11,0.21l-0.01 0 0.28 0.4 0.88 -0.49c0.24,-0.15 0.56,-0.16 0.82,0l0 0 1.26 0.75 1.63 -1.48c0.25,-0.25 0.64,-0.31 0.96,-0.13l0 0.01 0.9 0.52c4.37,-3.61 6.58,-9.51 6.81,-10.15 0.02,-0.06 0.05,-0.13 0.09,-0.19 0.22,-0.37 0.71,-0.5 1.08,-0.27l0 0c0.45,0.27 0.86,0.73 1.21,1.23 -0.02,-0.3 -0.05,-0.52 -0.07,-0.62l-0.01 -0.08 0 0 -1.41 -10.74c-0.06,-0.28 0.04,-0.6 0.28,-0.79 0.33,-0.26 0.79,-0.22 1.07,0.08 -0.5,-4.02 -2.38,-6.61 -2.68,-7.01 -0.03,-0.03 -0.06,-0.07 -0.09,-0.1l0 0c-6.37,-9.85 -13.21,-8.84 -13.66,-8.77l-0.01 0 -0.01 0.01c-0.31,0.06 -0.64,-0.06 -0.82,-0.34l0 0 -1.6 -2.4 -0.01 -0.02 0 0 -0.01 -0.01c-2.77,-3.61 -7.97,-2.08 -8.3,-1.98 -0.06,0.02 -0.13,0.03 -0.19,0.04l0 0c-0.01,0 -1.69,1.3 -4.19,4.94 -2.14,3.13 -0.74,4.63 -0.37,4.91 0.3,0.18 0.44,0.56 0.33,0.91l-0.75 2.39c-0.58,1.83 -0.83,4.22 -1.03,6.11 -0.05,0.55 -0.11,1.06 -0.15,1.4z"/>
   <path class="fil14" d="M57.64 256.98c-0.44,-0.05 -0.83,0.25 -0.89,0.69l-1.06 7.21c-1.76,0.56 -8.52,3.28 -13.03,6.74 -0.16,-0.06 0.07,0.48 0.3,0.87 1.51,3.01 3.25,4.89 6.65,6.57 5.27,1.22 9.9,3.26 15.41,3.26 5.5,0 11.02,-1.09 15.4,-3.26 3.42,-1.69 5.66,-3.61 7.16,-6.65l0.01 0c0.18,-0.36 0.11,-0.58 -0.22,-0.79 -4.5,-3.44 -12.41,-6.18 -14.17,-6.74l-0.3 -7.59c-0.06,-0.44 -0.45,-0.74 -0.89,-0.69l-14.37 0.38z"/>
   <path class="fil14" d="M58.85 448.81c0,0.27 -0.21,0.49 -0.48,0.49 -0.33,0 -2.31,-0.01 -2.69,-0.01 -0.26,0 -0.48,-0.21 -0.48,-0.48l0 -3.84 0 -0.02c0,-0.26 0.22,-0.48 0.48,-0.48l2.68 0 0.01 0c0.27,0 0.48,0.22 0.48,0.48l0 3.86z"/>
   <path class="fil15" d="M58.67 448.33l-0.01 0 -3.66 0c-0.09,0 -0.17,0.02 -0.24,0.06l-5.74 2.62c-0.1,0.05 -0.25,0.11 -0.39,0.17 -1.13,0.49 -1.63,0.7 -1.66,2.75l-0.01 0c0,0.27 0.21,0.49 0.48,0.49l0.01 0 0.01 0 11.33 0c0.27,0 0.48,-0.21 0.48,-0.48l0 -0.04 -0.12 -5.1 0 0c0,-0.26 -0.22,-0.47 -0.48,-0.47z"/>
   <path class="fil14" d="M70.99 448.81c0,0.27 0.22,0.49 0.49,0.49 0.33,0 2.31,-0.01 2.69,-0.01 0.26,0 0.48,-0.21 0.48,-0.48l0 -3.84 0 -0.02c0,-0.26 -0.22,-0.48 -0.48,-0.48l-2.68 0 -0.01 0c-0.27,0 -0.49,0.22 -0.49,0.48l0 3.86z"/>
   <path class="fil15" d="M71.18 448.33l0.01 0 3.66 0c0.09,0 0.17,0.02 0.24,0.06l5.74 2.62c0.1,0.05 0.25,0.11 0.39,0.17 1.13,0.49 1.63,0.7 1.66,2.75l0 0c0.01,0.27 -0.2,0.49 -0.47,0.49l-0.01 0 -0.01 0 -11.33 0c-0.27,0 -0.48,-0.21 -0.48,-0.48l0 -0.04 0.12 -5.1 0 0c0,-0.26 0.22,-0.47 0.48,-0.47z"/>
   <line class="fil4" x1="45.94" y1="370.4" x2="45.78" y2= "370.42" />
   <path class="fil4" d="M84.09 370.4c0,0 0,-0.01 0,-0.02l0 0"/>
   <line class="fil4" x1="87.32" y1="321.2" x2="87.32" y2= "321.21" />
   <path class="fil15" d="M87.12 321.08l0 0 0.16 0.15 0.08 0.13c0.99,1.66 3.97,20.92 -2.95,49.09 -0.04,0.3 -2.92,20.71 -4.13,34.96 -1.21,14.3 -3.88,40.73 -3.89,40.81l-0.16 -0.02 0.17 0.02c-0.01,0.08 -0.09,0.15 -0.18,0.14l-6.66 0.12 0 0 -0.17 -0.17 -1.33 -111.07 -3.05 -0.03 0 0 -3.04 0.03 -1.33 111.08 0 0 -0.18 0.16 -6.67 -0.12 0 0c-0.09,0 -0.15,-0.07 -0.16,-0.16 -0.05,-0.55 -2.68,-26.62 -3.88,-40.79 -1.21,-14.25 -4.09,-34.66 -4.13,-34.96 -6.77,-27.53 -4.29,-46.63 -2.98,-48.94l0.15 -0.25 0.13 -0.18 44.2 0z"/>
   <path class="fil16" d="M42.65 321.51c0.89,-2.08 1.5,-16.32 -0.82,-18.64 -3.22,-1.29 -4.27,-7.51 -4.51,-9.3 -2.45,-0.48 -11.69,-2.81 -6.78,-9.79 5.13,-7.29 11.52,-11.75 11.54,-11.76l0.58 -0.4c14.9,3.34 29.81,3.39 44.71,0l0.58 0.4c0.02,0.01 6.41,4.47 11.54,11.76 4.91,6.98 -4.33,9.31 -6.78,9.79 -0.24,1.79 -1.29,8.01 -4.5,9.3 -2.32,2.32 -1.75,16.42 -0.85,18.49 -7.42,1.64 -15.09,3.08 -22.34,2.96 -7.26,0.08 -14.94,-1.24 -22.37,-2.81z"/>
   <path class="fil14" d="M64.87 234.73c2.91,0 5.52,1.67 7.39,4.36 1.81,2.6 2.94,6.19 2.94,10.14 0,3.94 -1.13,7.53 -2.94,10.14 -1.87,2.69 -4.48,4.35 -7.39,4.35 -2.91,0 -5.52,-1.66 -7.39,-4.35 -1.81,-2.61 -2.93,-6.2 -2.93,-10.14 0,-3.95 1.12,-7.54 2.93,-10.14 1.87,-2.69 4.48,-4.36 7.39,-4.36z"/>
   <path class="fil17" d="M37.32 293.57l0.32 -17.86c-2.14,2 -4.75,4.74 -7.1,8.07 -4.91,6.98 4.33,9.31 6.78,9.79z"/>
   <path class="fil17" d="M92.71 293.57l-0.32 -17.86c2.14,2 4.75,4.74 7.1,8.07 4.91,6.98 -4.33,9.31 -6.78,9.79z"/>
   <line class="fil4" x1="80.36" y1="250.44" x2="80.35" y2= "250.44" />
   <path class="fil18" d="M60.23 243.16c0.71,0 1.37,0.21 1.86,0.55l0 0c0.56,0.4 0.9,0.96 0.9,1.6 0,0.64 -0.34,1.2 -0.9,1.59l0 0c-0.49,0.34 -1.15,0.55 -1.86,0.55 -0.72,0 -1.38,-0.21 -1.86,-0.55l-0.01 0c-0.55,-0.39 -0.9,-0.95 -0.9,-1.59 0,-0.64 0.35,-1.2 0.9,-1.6l0.01 0c0.48,-0.34 1.14,-0.55 1.86,-0.55z"/>
   <path class="fil18" d="M69.3 243.16c0.71,0 1.38,0.21 1.86,0.55l0 0c0.56,0.4 0.91,0.96 0.91,1.6 0,0.64 -0.35,1.2 -0.91,1.59l0 0c-0.48,0.34 -1.15,0.55 -1.86,0.55 -0.72,0 -1.37,-0.21 -1.86,-0.55l0 0c-0.56,-0.39 -0.9,-0.95 -0.9,-1.59 0,-0.64 0.34,-1.2 0.9,-1.6l0 0c0.49,-0.34 1.14,-0.55 1.86,-0.55z"/>
   <path class="fil18" d="M62.56 253.52c-0.32,-0.21 -0.75,-0.12 -0.96,0.2 -0.21,0.31 -0.13,0.74 0.19,0.95 0.01,0.01 2.82,1.87 5.79,0.02 0.33,-0.21 0.42,-0.63 0.22,-0.96 -0.2,-0.32 -0.62,-0.42 -0.95,-0.22 -2.22,1.39 -4.29,0.02 -4.29,0.01z"/>
   <path class="fil19" d="M59.34 245.04c0.36,0 0.69,0.11 0.94,0.28l0 0c0.28,0.2 0.45,0.48 0.45,0.8 0,0.32 -0.17,0.61 -0.45,0.8l0 0c-0.25,0.18 -0.58,0.28 -0.94,0.28 -0.36,0 -0.7,-0.1 -0.94,-0.28l0 0c-0.28,-0.19 -0.46,-0.48 -0.46,-0.8 0,-0.32 0.18,-0.6 0.46,-0.8l0 0c0.24,-0.17 0.58,-0.28 0.94,-0.28z"/>
   <path class="fil19" d="M68.43 245.04c0.36,0 0.69,0.11 0.94,0.28l0 0c0.28,0.2 0.45,0.48 0.45,0.8 0,0.32 -0.17,0.61 -0.45,0.8l0 0c-0.25,0.18 -0.58,0.28 -0.94,0.28 -0.36,0 -0.7,-0.1 -0.94,-0.28l0 0c-0.28,-0.19 -0.46,-0.48 -0.46,-0.8 0,-0.32 0.17,-0.6 0.46,-0.8l0 0c0.24,-0.17 0.58,-0.28 0.94,-0.28z"/>
   <path class="fil17" d="M50.54 320.69c12.19,-18.31 8.75,-32.18 4.2,-40.21 -2.74,-4.86 -5.92,-7.43 -6.27,-7.73 -2.43,-0.37 -3.38,-0.59 -5.81,-1.13l-0.05 0.04 -0.53 0.36c-0.01,0 -1.9,1.32 -4.44,3.69l-0.14 7.79 -0.18 10.07c0.15,1.16 0.65,4.2 1.87,6.53 0.65,1.26 1.51,2.32 2.64,2.77 2.32,2.32 1.71,16.56 0.82,18.64 2.64,0.56 3.86,0.7 6.54,1.14 0.47,-0.66 0.92,-1.31 1.35,-1.96z"/>
   <path class="fil17" d="M76.68 280.57c-2.32,7.98 -4.17,21.94 2.05,40.51 0.2,0.62 0.42,1.25 0.65,1.89 2.67,-0.47 5.34,-1.03 7.98,-1.61 -0.9,-2.07 -1.47,-16.17 0.85,-18.49 0.84,-0.34 1.54,-1.02 2.11,-1.87 1.6,-2.39 2.22,-6.11 2.39,-7.43l-0.18 -10.19 -0.14 -7.67c-2.54,-2.37 -4.43,-3.69 -4.44,-3.69l-0.48 -0.33 -0.1 -0.07c-2.56,0.58 -5.11,1.06 -7.66,1.44 -0.31,0.53 -1.74,3.11 -3.03,7.51z"/>
   <path class="fil16" d="M45.07 307.78l0 0 7.11 0c0.12,0 0.21,0.1 0.21,0.21l0 0.01 0 2.02c0,0.12 -0.09,0.22 -0.21,0.22l0 0 -7.11 0c-0.12,0 -0.22,-0.1 -0.22,-0.22l0 0 0 -2.03c0,-0.11 0.1,-0.21 0.22,-0.21z"/>
   <path class="fil16" d="M77.76 307.78l0.01 0 7.11 0c0.12,0 0.21,0.1 0.21,0.21l0 0.01 0 2.02c0,0.12 -0.09,0.22 -0.21,0.22l0 0 -7.12 0c-0.11,0 -0.21,-0.1 -0.21,-0.22l0 0 0 -2.03c0,-0.11 0.1,-0.21 0.21,-0.21z"/>
  </g>
  <g id="_2670722382512">
   <path class="fil14" d="M426.86 261.04l-0.55 -5.14c-0.92,0.13 -5.88,0.67 -10.54,-1.74l0 0c-0.02,-0.01 -0.03,-0.02 -0.04,-0.04 -0.16,-0.16 -2.87,-3.01 -2.5,-7.86l0 -1.1 -0.44 0c-2.92,0 -1.12,-4.87 0.7,-5.33l0.19 -11.67 0 0c0,-0.07 0.06,-0.13 0.13,-0.14 0.27,-0.03 15.25,-1.83 18.02,10.79 0.64,-0.97 2.76,-3.53 4.52,1.66l0 0 0 0.01c0.03,0.11 0.92,3.09 -1.22,4.56l0 7.11 1.22 6.26c0.01,0.08 -0.03,0.15 -0.1,0.17l-9.19 2.59 0 0c-0.07,0.03 -0.16,-0.01 -0.19,-0.08 0,-0.02 -0.01,-0.03 -0.01,-0.05z"/>
   <path class="fil16" d="M447 342.55c-0.27,0.06 -0.81,0.32 -1.57,0.67 -4.47,2.13 -16.38,7.78 -29.99,-0.7l-0.12 -0.07 0 -0.14c0,-0.14 0.31,-51.21 0.1,-66.11 -0.07,-5.53 4.11,-12.07 9.43,-15.76 2.01,-1.39 4.18,-2.37 6.34,-2.74 2.18,-0.38 4.36,-0.14 6.37,0.93 3.74,1.99 6.87,6.85 8.26,15.96 2,13.02 1.37,67.57 1.37,67.73l0 0.19 -0.19 0.04z"/>
   <path class="fil15" d="M422.35 372.06c-0.15,-0.7 -5.48,-25.38 -7.03,-29.61l0 -0.38 0.24 0 31.38 0 0.25 0c-0.28,7.12 0.38,11.62 -7.53,15.89 -0.33,2.01 -4.78,30.07 -2.55,50.09 2.26,20.32 2.01,28.14 1.99,28.52l0.74 11.53 0.02 0.31 -0.31 -0.05 -9.55 -1.68 -0.17 -0.03 -0.03 -0.18 -3.57 -23.82 0 0 -1.57 -11.02 0 -0.02 -2.31 -39.55z"/>
   <path class="fil15" d="M439.1 445.01l-0.02 0 -6.83 0c-0.16,0 -0.31,0.04 -0.45,0.11l-10.69 4.89c-0.2,0.09 -0.47,0.21 -0.73,0.32 -2.11,0.9 -3.04,1.3 -3.11,5.13l0 0c-0.01,0.5 0.39,0.91 0.88,0.92l0.02 0 0.03 0 21.12 0c0.5,0 0.9,-0.41 0.9,-0.9l0 -0.09 -0.22 -9.5 0 -0.01c-0.01,-0.48 -0.41,-0.87 -0.9,-0.87z"/>
   <path class="fil20" d="M427.9 439.19l12.87 0 0.01 0c0.19,0 0.33,0.11 0.33,0.24l0 3.92 0 0c0,0.14 -0.14,0.25 -0.33,0.25l-12.88 0 0 0c-0.19,0 -0.33,-0.11 -0.33,-0.25l0 -3.91 0 -0.01c0,-0.13 0.14,-0.24 0.33,-0.24z"/>
   <path class="fil21" d="M439.55 443.6l-10.18 0 0.37 2.47 2.06 -0.95c0.14,-0.07 0.29,-0.11 0.45,-0.11l6.83 0 0.02 0c0.21,0 0.4,0.07 0.55,0.18l-0.1 -1.59z"/>
   <path class="fil14" d="M414.75 326.21c8.88,-27.2 8.84,-39.01 8.79,-39.4 0.01,0.06 0.06,0.11 0.13,0.12l0.02 -0.15 -0.15 0.02 0 0.01c0,-0.02 0,-0.04 0,-0.06 0.02,-0.08 0.1,-0.14 0.18,-0.13l9.88 1.74 0 0c0.09,0.02 0.15,0.09 0.14,0.18l0 0c-0.54,4.31 -5.5,23.88 -11.49,38.84 -3.92,9.76 -7.88,17.64 -10.42,18.26l-0.01 0 0 0c-5.08,1.62 -5.81,-1.93 -5.85,-2.16 -0.01,-0.03 -0.01,-0.06 0,-0.09l0.15 0.05 -0.15 -0.05 3.8 -10.48c-0.35,-0.01 -0.9,0.04 -1.52,0.13 -1.16,0.16 -2.53,0.42 -3.31,0.58l-0.01 0 -0.03 -0.15 0.03 0.15c-0.52,0.1 -0.87,-0.06 -1.07,-0.36 -0.11,-0.17 -0.17,-0.38 -0.18,-0.6l0 -0.01 0 0 0 0 0 0c-0.01,-0.22 0.04,-0.46 0.12,-0.68 0.23,-0.6 0.77,-1.14 1.59,-1.19l0.02 0 0 0c4.94,-0.24 8.98,-4.21 9.34,-4.57z"/>
   <path class="fil22" d="M422.24 286.52l12.32 2.16c0.33,-1.3 2.82,-11.75 1.34,-24.57 -0.08,-0.67 -0.84,-1.33 -1.96,-1.81 -0.92,-0.4 -2.08,-0.68 -3.28,-0.75 -1.19,-0.07 -2.43,0.07 -3.52,0.49 -1.5,0.58 -2.72,1.7 -3.17,3.58 -0.03,0.3 -0.67,6.82 -1.73,20.9z"/>
   <path class="fil15" d="M426.32 234.26c-0.14,0 -0.27,0.07 -0.44,0.16l0 0c-0.78,0.42 -2.17,1.17 -7.46,-1.76l-0.03 -0.02 -4.78 -4.46c-0.66,-0.62 -0.57,-1.24 0,-1.85 1.38,-1.48 5.77,-2.86 8.64,-3.76l0.75 -0.24c3.04,-0.97 6.43,-0.85 9.31,0.03 1.63,0.49 3.1,1.23 4.27,2.14 1.17,0.93 2.03,2.04 2.42,3.27 0.31,0.96 0.33,1.99 0.01,3.06 0.02,0.57 0.28,12.95 -6.18,17.69l-0.19 0.14 -0.04 -0.24c-1.11,-1.38 -5.57,-14.16 -6.28,-14.16z"/>
  </g>
  <g id="_2670867511616">
   <path class="fil23" d="M107.78 404.23l0.02 0 45.18 0c0.44,0 0.8,0.36 0.8,0.8 0,0.06 -0.01,0.13 -0.02,0.19l-7.69 48.49 0.01 0c-0.06,0.4 -0.41,0.68 -0.79,0.68l-0.03 0 -29.78 0c-0.42,0 -0.77,-0.32 -0.8,-0.74l-7.68 -48.5 -0.01 0c-0.07,-0.43 0.23,-0.84 0.67,-0.91 0.04,-0.01 0.08,-0.01 0.12,-0.01z"/>
   <path class="fil24" d="M155.3 364.22c-4.29,9.38 -3.54,12.36 -3,14.52 0.47,1.87 0.81,3.22 -1.38,6.52 -2.4,3.6 -4.89,6.82 -7.81,9.09 -2.99,2.33 -6.41,3.66 -10.58,3.4l0 0c-0.32,-0.02 -0.58,-0.22 -0.69,-0.5 -1.84,-3.73 -2.67,-7.89 -2.4,-12.03 0.25,-4.02 1.54,-8.04 3.93,-11.63 2.39,-3.6 5.59,-6.34 9.21,-8.13 3.74,-1.85 7.91,-2.69 12.08,-2.43l-0.05 0.8 0.05 -0.8c0.44,0.02 0.78,0.4 0.75,0.85 -0.01,0.12 -0.05,0.24 -0.11,0.34z"/>
   <path class="fil24" d="M106.02 385.64c0.18,-2.21 0.42,-5.28 -5.39,-13.83 -0.07,-0.09 -0.12,-0.19 -0.15,-0.3 -0.1,-0.44 0.16,-0.87 0.6,-0.97l0.18 0.78 -0.18 -0.78c4.06,-0.95 8.32,-0.82 12.32,0.39 3.86,1.16 7.47,3.32 10.43,6.47 2.96,3.14 4.9,6.88 5.82,10.81 0.96,4.04 0.83,8.29 -0.36,12.28 -0.07,0.28 -0.29,0.52 -0.59,0.59l0 0c-4.08,0.95 -7.67,0.21 -11,-1.58 -3.26,-1.76 -6.26,-4.52 -9.22,-7.66 -2.71,-2.89 -2.61,-4.27 -2.46,-6.2z"/>
   <path class="fil15" d="M142.78 379.91c0.26,-0.35 0.2,-0.86 -0.15,-1.12 -0.35,-0.27 -0.86,-0.2 -1.12,0.15 -2.24,2.91 -6.48,9.74 -9.13,16.17 -1.8,4.39 -2.87,8.63 -2.09,11.45 0.12,0.42 0.56,0.67 0.99,0.55 0.42,-0.11 0.67,-0.55 0.56,-0.98 -0.68,-2.43 0.34,-6.32 2.02,-10.42 2.59,-6.28 6.74,-12.95 8.92,-15.8z"/>
   <path class="fil15" d="M116.7 384.03c-0.32,-0.3 -0.83,-0.28 -1.13,0.04 -0.3,0.32 -0.28,0.83 0.04,1.13 2.09,1.95 5.83,6.09 9.09,10.61 2.3,3.2 4.36,6.58 5.4,9.49 0.15,0.41 0.6,0.63 1.02,0.48 0.41,-0.15 0.63,-0.61 0.48,-1.02 -1.1,-3.06 -3.23,-6.58 -5.61,-9.88 -3.32,-4.62 -7.15,-8.85 -9.29,-10.85z"/>
   <path class="fil25" d="M106.99 405.15l0 0zm1.46 9.16l43.87 0 1.44 -9.09 0.02 -0.19c0,-0.44 -0.36,-0.8 -0.8,-0.8l-21.35 0 -0.23 0 -1.36 0 -0.36 0 -21.88 0 -0.02 0 -0.12 0.01c-0.44,0.07 -0.74,0.48 -0.66,0.91l1.45 9.16z"/>
   <path class="fil25" d="M108.45 414.31l6.23 39.34c0.03,0.42 0.38,0.74 0.8,0.74l29.78 0 0.03 0c0.2,0 0.4,-0.08 0.54,-0.22 -30.97,-20.76 -37.38,-39.86 -37.38,-39.86z"/>
  </g>
  <polygon class="fil26" points="0,452.15 512,452.15 512,457.15 0,457.15 "/>
 </g>
</svg>
