<svg xmlns="http://www.w3.org/2000/svg" xmlns:xlink="http://www.w3.org/1999/xlink" width="1500" height="1500" viewBox="0 0 1500 1500">
  <defs>
    <clipPath id="clip-undraw_dream_world_cin1">
      <rect width="1500" height="1500" id="id_103"></rect>
    </clipPath>
  </defs>
  <g id="undraw_dream_world_cin1" clip-path="url(#clip-undraw_dream_world_cin1)">
    <rect width="1500" height="1500" fill="#fff" id="id_104"></rect>
    <g id="undraw_dream_world_cin1_2_" data-name="undraw_dream_world_cin1 (2)">
      <rect id="Rectangle_1546" data-name="Rectangle 1546" width="1500" height="1500" fill="#fff"></rect>
      <path id="Path_7963" data-name="Path 7963" d="M1081.95,764.86H630.589a8.368,8.368,0,0,1-8.359-8.36V550.89a8.368,8.368,0,0,1,8.359-8.36H1081.95a8.367,8.367,0,0,1,8.36,8.36V756.5a8.367,8.367,0,0,1-8.36,8.36Z" fill="#fff"></path>
      <path id="Path_7964" data-name="Path 7964" d="M1081.95,764.86H630.589a8.368,8.368,0,0,1-8.359-8.36V550.89a8.368,8.368,0,0,1,8.359-8.36H1081.95a8.367,8.367,0,0,1,8.36,8.36V756.5a8.367,8.367,0,0,1-8.36,8.36ZM630.589,545.874a5.021,5.021,0,0,0-5.016,5.016V756.5a5.022,5.022,0,0,0,5.016,5.016H1081.95a5.021,5.021,0,0,0,5.02-5.016V550.89a5.019,5.019,0,0,0-5.02-5.016Z" fill="#4ca676"></path>
      <path id="Path_7965" data-name="Path 7965" d="M689.1,641.991a35.112,35.112,0,1,0-35.106-35.111A35.109,35.109,0,0,0,689.1,641.991Z" fill="#3d8a61"></path>
      <path id="Path_7966" data-name="Path 7966" d="M770.177,583.472a5.852,5.852,0,0,0,0,11.7H1046.01a5.852,5.852,0,1,0,0-11.7Z" fill="#4ebd82"></path>
      <path id="Path_7967" data-name="Path 7967" d="M770.177,618.583a5.852,5.852,0,0,0,0,11.7H888.869a5.852,5.852,0,1,0,0-11.7Z" fill="#4cbd81"></path>
      <path id="Path_7968" data-name="Path 7968" d="M662.171,674.716c-4.45,0-8.072,2.625-8.072,5.852s3.622,5.852,8.072,5.852H1042.74c4.45,0,8.07-2.626,8.07-5.852s-3.62-5.852-8.07-5.852Z" fill="#4abf81"></path>
      <path id="Path_7969" data-name="Path 7969" d="M662.171,709.827c-4.45,0-8.072,2.626-8.072,5.852s3.622,5.852,8.072,5.852H1042.74c4.45,0,8.07-2.626,8.07-5.852s-3.62-5.852-8.07-5.852Z" fill="#48bd7f"></path>
      <path id="Path_7970" data-name="Path 7970" d="M1419.64,492.33H968.276a8.37,8.37,0,0,1-8.359-8.36V278.36a8.37,8.37,0,0,1,8.359-8.36H1419.64a8.366,8.366,0,0,1,8.36,8.36V483.97a8.366,8.366,0,0,1-8.36,8.36Z" fill="#fff"></path>
      <path id="Path_7971" data-name="Path 7971" d="M1419.64,492.33H968.276a8.37,8.37,0,0,1-8.359-8.36V278.36a8.37,8.37,0,0,1,8.359-8.36H1419.64a8.366,8.366,0,0,1,8.36,8.36V483.97a8.366,8.366,0,0,1-8.36,8.36ZM968.276,273.344a5.021,5.021,0,0,0-5.015,5.016V483.97a5.021,5.021,0,0,0,5.015,5.016H1419.64a5.021,5.021,0,0,0,5.02-5.016V278.36a5.021,5.021,0,0,0-5.02-5.016Z" fill="#3cab70"></path>
      <path id="Path_7972" data-name="Path 7972" d="M1026.79,369.461a35.111,35.111,0,1,0-35.11-35.111A35.109,35.109,0,0,0,1026.79,369.461Z" fill="#2b995e"></path>
      <path id="Path_7973" data-name="Path 7973" d="M1107.86,310.942a5.852,5.852,0,0,0,0,11.7H1383.7a5.852,5.852,0,1,0,0-11.7Z" fill="#45ba7b"></path>
      <path id="Path_7974" data-name="Path 7974" d="M1107.86,346.053a5.852,5.852,0,0,0,0,11.7h118.7a5.852,5.852,0,0,0,0-11.7Z" fill="#47ba7d"></path>
      <path id="Path_7975" data-name="Path 7975" d="M999.859,402.186c-4.451,0-8.073,2.626-8.073,5.852s3.622,5.852,8.073,5.852H1380.42c4.46,0,8.08-2.626,8.08-5.852s-3.62-5.852-8.08-5.852Z" fill="#42b879"></path>
      <path id="Path_7976" data-name="Path 7976" d="M999.859,437.3c-4.451,0-8.073,2.626-8.073,5.852S995.408,449,999.859,449H1380.42c4.46,0,8.08-2.626,8.08-5.852s-3.62-5.852-8.08-5.852Z" fill="#43ba7b"></path>
      <path id="Path_7977" data-name="Path 7977" d="M1419.64,1037.39H968.276a8.368,8.368,0,0,1-8.359-8.36V823.419a8.37,8.37,0,0,1,8.359-8.359H1419.64a8.366,8.366,0,0,1,8.36,8.359V1029.03a8.365,8.365,0,0,1-8.36,8.36Z" fill="#fff"></path>
      <path id="Path_7978" data-name="Path 7978" d="M1419.64,1037.39H968.276a8.368,8.368,0,0,1-8.359-8.36V823.419a8.37,8.37,0,0,1,8.359-8.359H1419.64a8.366,8.366,0,0,1,8.36,8.359V1029.03a8.365,8.365,0,0,1-8.36,8.36ZM968.276,818.4a5.019,5.019,0,0,0-5.015,5.015V1029.03a5.019,5.019,0,0,0,5.015,5.02H1419.64a5.019,5.019,0,0,0,5.02-5.02V823.419a5.019,5.019,0,0,0-5.02-5.015Z" fill="#48a372"></path>
      <path id="Path_7979" data-name="Path 7979" d="M1026.79,914.521a35.112,35.112,0,1,0-35.11-35.112A35.109,35.109,0,0,0,1026.79,914.521Z" fill="#3d8a61"></path>
      <path id="Path_7980" data-name="Path 7980" d="M1107.86,856a5.852,5.852,0,0,0,0,11.7H1383.7a5.852,5.852,0,1,0,0-11.7Z" fill="#42b377"></path>
      <path id="Path_7981" data-name="Path 7981" d="M1107.86,891.113a5.852,5.852,0,0,0,0,11.7h118.7a5.852,5.852,0,0,0,0-11.7Z" fill="#39ad6f"></path>
      <path id="Path_7982" data-name="Path 7982" d="M999.859,947.246c-4.451,0-8.073,2.625-8.073,5.852s3.622,5.851,8.073,5.851H1380.42c4.46,0,8.08-2.625,8.08-5.851s-3.62-5.852-8.08-5.852Z" fill="#34ad6c"></path>
      <path id="Path_7983" data-name="Path 7983" d="M999.859,982.357c-4.451,0-8.073,2.625-8.073,5.852s3.622,5.852,8.073,5.852H1380.42c4.46,0,8.08-2.626,8.08-5.852s-3.62-5.852-8.08-5.852Z" fill="#3ab372"></path>
      <path id="Path_7984" data-name="Path 7984" d="M508.263,1206.28l22.377-6.5-14.422-89.42-33.026,9.59Z" fill="#dbad81"></path>
      <path id="Path_7985" data-name="Path 7985" d="M579.832,1208.02,509.5,1228.45l-7.893-27.17,46.429-13.49a24.882,24.882,0,0,1,30.841,16.96Z" fill="#551f11"></path>
      <path id="Path_7986" data-name="Path 7986" d="M277.012,1206.81h23.3l11.085-89.89H277.007Z" fill="#dbad81"></path>
      <path id="Path_7987" data-name="Path 7987" d="M345.254,1228.45H272.019v-28.3h48.348a24.889,24.889,0,0,1,24.888,24.89Z" fill="#551f11"></path>
      <path id="Path_7988" data-name="Path 7988" d="M331.839,893.89a19.117,19.117,0,0,0-5.363-28.817l12.1-66.844L306.12,812.1l-6.514,61.349a19.217,19.217,0,0,0,32.233,20.439Z" fill="#dbad81"></path>
      <path id="Path_7989" data-name="Path 7989" d="M300.789,853.191l31.955,6.489,14.8-107.9.049-.109L394.47,646.6c.025-.1,5.66-17.99-.382-29.574a17.255,17.255,0,0,0-10.66-8.694c-20.639-6.347-30.117,8.572-30.911,9.9L314.439,733.846Z" fill="#95a7bf"></path>
      <path id="Path_7990" data-name="Path 7990" d="M480.324,1188.68,442.132,1018.7,388.116,905.069,329.548,1184.73l-87.256-9.7,80.024-295.366c-1.249-4.518-18.745-71.941,34.365-106.99l9.183-30.877,78.858,18.391-.957,73.678,66.452,151.913,57.312,175.771Z" fill="#544306"></path>
      <path id="Path_7991" data-name="Path 7991" d="M447.528,770.319l-81.5-7.762,1.922-49.98c-2.91-5.205-41.232-75.1-15.962-100.536l7.669-11.5.175-.1c.31-.175,31.347-17.063,58.09,17.323a235.872,235.872,0,0,0,19.682,21.76c17.141,17.312,28.476,28.758,12.8,58.816Z" fill="#95a7bf"></path>
      <path id="Path_7992" data-name="Path 7992" d="M422.463,579.882a46.688,46.688,0,1,0-63.354-18.573A46.694,46.694,0,0,0,422.463,579.882Z" fill="#dbad81"></path>
      <path id="Path_7993" data-name="Path 7993" d="M419.358,891.288a19.116,19.116,0,0,0-12.479-26.521l-5.2-67.732L373.785,818.67l9.218,61a19.216,19.216,0,0,0,36.355,11.616Z" fill="#dbad81"></path>
      <path id="Path_7994" data-name="Path 7994" d="M377.584,861.527l-17.227-120.6,7.636-121.916c.054-.2,5.66-19.733,29.107-18.706a18.866,18.866,0,0,1,13.684,6.265c9.245,10.2,8.312,29.021,8.268,29.817L400.287,749.866l13.165,109.668Z" fill="#95a7bf"></path>
      <path id="Path_7995" data-name="Path 7995" d="M461.358,503.172c-1.657-9.609-9.637-17.167-18.615-20.966s-18.923-4.475-28.657-5.017a152.306,152.306,0,0,0-24.843.077,11.529,11.529,0,0,0,2.186-4.881c.71-4.119-1.754-8.781-5.911-9.687-2.99-.651-6.047.621-9,1.49s-6.536,1.214-8.734-.846c-2.511-2.355-1.911-6.612-4.057-9.289-2.005-2.5-5.93-2.845-9-1.666a23.786,23.786,0,0,0-7.813,5.843l-2.777,2.751c-.241-.181-.506-.343-.741-.528-7.318-5.752-10.963-14.2-6.809-21.291a21.638,21.638,0,0,0,1.084,23.461,27.72,27.72,0,0,0,2.094,2.689q-2.178,2.157-4.355,4.315c-2.238,2.217-4.66,4.969-4.091,7.994.6,3.175,4.442,4.886,7.736,4.411a17.243,17.243,0,0,0,7.33-3.423,21.265,21.265,0,0,0-6.926,8.22,11.3,11.3,0,0,0,1.238,11.735,10.649,10.649,0,0,0,7.06,3.432,54.571,54.571,0,0,0-8.98,23.054A56.71,56.71,0,0,0,364.612,579.7a31.017,31.017,0,0,0,16.562,5.272c5.874-.12,11.92-3.059,14.585-8.295,2.776-5.456,1.481-11.992.338-18.006s-1.925-12.775,1.6-17.779,13.056-5.308,14.659.6a30.943,30.943,0,0,1,32.78-14.75l2.541,4.09C457.39,529.987,463.014,512.78,461.358,503.172Z" fill="#551f11"></path>
      <path id="Path_7996" data-name="Path 7996" d="M711.6,1230H74.672a1.687,1.687,0,0,1-1.182-.49,1.667,1.667,0,0,1-.49-1.18,1.672,1.672,0,0,1,1.672-1.67H711.6a1.673,1.673,0,0,1,1.672,1.67,1.665,1.665,0,0,1-.49,1.18A1.685,1.685,0,0,1,711.6,1230Z" fill="#ccc"></path>
      <ellipse id="Ellipse_1259" data-name="Ellipse 1259" cx="2.5" cy="5" rx="2.5" ry="5" transform="matrix(0.972, 0.235, -0.235, 0.972, 436.347, 547.001)" fill="#551f11"></ellipse>
    </g>
  </g>
</svg>